# xmcd CD database file
#
# Track frame offsets:
#	150
#	16560
#	30872
#	45642
#	57470
#	75697
#	90510
#	104385
#	118642
#	133920
#
# Disc length: 1960 seconds
#
# Revision: 3
# Processed by: cddbd v1.5.1PL0 Copyright (c) Steve Scherf et al.
# Submitted via: CDex 1.50
#
DISCID=7207a60a
DTITLE=John Michael Montgomery - Life's A Dance
DYEAR=1992
DGENRE=Country
TTITLE0=Beer And Bones
TTITLE1=Life's A Dance
TTITLE2=When Your Baby Ain't Around
TTITLE3=Line On Love
TTITLE4=I Love The Way You Love Me
TTITLE5=Taking Off The Edge
TTITLE6=Everytime I Fall (It Breaks Her Heart)
TTITLE7=Dream On Texas Ladies
TTITLE8=A Great Memory
TTITLE9=Nickels And Dimes And Love
EXTD=YEAR: 1992
EXTT0=
EXTT1=
EXTT2=
EXTT3=
EXTT4=
EXTT5=
EXTT6=
EXTT7=
EXTT8=
EXTT9=
PLAYORDER=
